# xmcd
#
# Track frame offsets:
#	150
#	20722
#	35833
#	50711
#	66072
#	79124
#	96513
#	110726
#	122648
#	138890
#	161628
#	183215
#	197931
#	216021
#	231120
#	245121
#	272144
#	287353
#
# Disc length: 4240 seconds
#
# Revision: 0
# Processed by: cddbd v1.4PL0 Copyright (c) Steve Scherf et al.
# Submitted via: EZCDDA 4.3.3.2
#
DISCID=12108e12
DTITLE=Dixie Chicks - Gallery Disc 1
DYEAR=1900
DGENRE=
TTITLE0=White Womens Clothes
TTITLE1=John Wayne And Jesus
TTITLE2=Snowin On Raton
TTITLE3=Dance Hall Dreamer
TTITLE4=Take Me Down To The River
TTITLE5=Amazing Grace
TTITLE6=I Wanna Be Your Man Forever
TTITLE7=Somewhere Down The Road
TTITLE8=Strong Enough
TTITLE9=Tombstone Blues
TTITLE10=You Were Mine
TTITLE11=Roly Poly
TTITLE12=Walk Softly
TTITLE13=Stand By Your Man
TTITLE14=You Can't Hurry Love
TTITLE15=Hey Dixie
TTITLE16=Roanoke
TTITLE17=Love Me Like A Man
EXTD=
EXTT0=
EXTT1=
EXTT2=
EXTT3=
EXTT4=
EXTT5=
EXTT6=
EXTT7=
EXTT8=
EXTT9=
EXTT10=
EXTT11=
EXTT12=
EXTT13=
EXTT14=
EXTT15=
EXTT16=
EXTT17=
PLAYORDER=
